<svg id="Layer_1" data-name="Layer 1" xmlns="http://www.w3.org/2000/svg" viewBox="0 0 1080 887"><defs><style>.cls-1{fill:#fff;}</style></defs><path class="cls-1" d="M203,798.23a3.18,3.18,0,1,1,6.36,0v22.2h32.51v-22.2a3.18,3.18,0,1,1,6.35,0v50.69a3.18,3.18,0,1,1-6.35,0V826.39H209.34v22.53a3.18,3.18,0,1,1-6.36,0Z"/><path class="cls-1" d="M332.43,823.73v-.16c0-15.53,11.67-29.12,28.81-29.12s28.64,13.43,28.64,29v.16c0,15.53-11.67,29.13-28.8,29.13S332.43,839.26,332.43,823.73Zm50.85,0v-.16c0-12.79-9.33-23.25-22.2-23.25S339,810.62,339,823.41v.16c0,12.79,9.33,23.25,22.21,23.25S383.28,836.53,383.28,823.73Z"/><path class="cls-1" d="M485.13,801.28H468.8a3,3,0,0,1-3-2.89,3,3,0,0,1,3-3h39.1a3,3,0,0,1,3,3,3,3,0,0,1-3,2.89H491.57v47.64a3.22,3.22,0,0,1-6.44,0Z"/><path class="cls-1" d="M593.18,848.51V798.63a3.22,3.22,0,0,1,3.14-3.22h35a2.9,2.9,0,0,1,0,5.79H599.53v19.23h28.16a2.94,2.94,0,0,1,2.9,2.9,2.89,2.89,0,0,1-2.9,2.9H599.53v19.71h32.19a2.9,2.9,0,0,1,0,5.79h-35.4A3.22,3.22,0,0,1,593.18,848.51Z"/><path class="cls-1" d="M717.88,798.23a3.18,3.18,0,1,1,6.36,0v47.63h29.2a3,3,0,0,1,2.9,3,2.88,2.88,0,0,1-2.9,2.89H721a3.22,3.22,0,0,1-3.14-3.22Z"/><path class="cls-1" d="M836.46,845a2.85,2.85,0,0,1-1.2-2.41,3.07,3.07,0,0,1,3-3.14,2.81,2.81,0,0,1,1.94.73A25.63,25.63,0,0,0,858,846.82c7.56,0,12.55-4,12.55-9.57v-.16c0-5.23-2.82-8.21-14.65-10.7-12.95-2.82-18.9-7-18.9-16.26V810c0-8.85,7.8-15.36,18.5-15.36,7.4,0,12.8,1.85,18,5.55a3.27,3.27,0,0,1,1.36,2.57,3.05,3.05,0,0,1-3.05,3.06,3,3,0,0,1-1.86-.56,23.53,23.53,0,0,0-14.56-4.91c-7.32,0-12,4-12,9.09v.16c0,5.31,2.9,8.29,15.29,10.94,12.55,2.74,18.35,7.33,18.35,15.94v.16c0,9.65-8,15.93-19.23,15.93A32.93,32.93,0,0,1,836.46,845Z"/><path class="cls-1" d="M627.89,108.78c11.79-1.14,23.11-2.62,34.47-3.22,9.31-.49,18.8-.9,28,.37,14.57,2,19.27,12.69,12.33,25.77-5.25,9.89-13.11,17.56-21.64,24.51-11.69,9.51-23.54,18.81-35.43,28-2.5,2-3.22,3.85-2.74,7.05,4,26.6,8,53.19,11.4,79.87a91.15,91.15,0,0,1-.61,24c-1.89,13-9.2,19.47-22.29,20.77-10.91,1.08-21.56-.9-32.11-3.54-25.87-6.46-49.89-17.53-73.39-29.8-4.61-2.41-7.69-2.49-12,.8-13.45,10.33-27.05,20.5-41.11,30-11.66,7.86-24.21,14.27-38.66,15.56a31.81,31.81,0,0,1-5.69.05c-9.72-.9-14.75-6.26-13.05-15.8,1.56-8.7,3.82-17.55,7.5-25.54,11.44-24.82,23.07-49.59,35.78-73.77Q489.9,154.49,522.75,96c10.52-18.68,22.64-36.5,34.76-54.21C561.45,36,567.24,31.2,573,27.06c8.65-6.23,16.9-4.94,24.52,2.46s12.81,16.87,16,26.92c4.92,15.58,8.87,31.47,13.22,47.23C627.12,105.2,627.43,106.76,627.89,108.78Zm-14.5,12.39c-32.39,3.38-63.66,6.61-94.91,10-1.43.16-3.15,1.93-3.89,3.38-16.76,33.14-33.37,66.36-50.13,99.5-1.62,3.19-1.13,4.93,1.9,6.64q23.86,13.49,47.58,27.22c2.5,1.46,4.09,1,6.21-.62,10-7.63,20.19-15,30.17-22.65q36-27.62,71.91-55.48c1.44-1.13,3-3.6,2.77-5.19-2.91-20-6.1-39.87-9.37-59.77C615.43,123,614,122,613.39,121.17Zm13.58,76-99.75,76.72a15,15,0,0,0,1.9,1.5c18,9.08,36.12,18.11,55.69,23.25,11.07,2.91,22.6,4.45,34,5.58,7.63.75,13.16-3.48,14.86-10.94,1.56-6.89,2.63-14.19,2.11-21.18-1.33-18-3.58-36-5.64-54C629.39,211.31,628.13,204.63,627,197.15Zm-104.7-77.22,91-9.9a19.36,19.36,0,0,0-.17-3.21c-3.45-14.47-6.57-29-10.6-43.36a74.69,74.69,0,0,0-8.42-18.19c-5.76-9.44-13.41-10.64-21.4-3.07A93.51,93.51,0,0,0,558,60.07c-10.6,16.79-20.56,34-30.76,51C525.67,113.79,524.18,116.56,522.27,119.93Zm-62.2,124.56a9.51,9.51,0,0,0-1.26,1.73c-7.19,16.46-14.46,32.88-21.42,49.44a34.17,34.17,0,0,0-2.14,10.7c-.46,6.51,2.93,9.62,9.15,7.89,5.71-1.59,11.6-3.5,16.57-6.62,15.83-9.95,31.25-20.52,46.84-30.85.81-.53,1.69-1,2.82-1.62Zm180.2-67.66c3.05-2.37,5.46-4.14,7.76-6.05,12.45-10.35,25-20.56,37.21-31.21,3.32-2.9,5.89-6.9,8.06-10.8,2.94-5.3,1-9.43-4.85-11.09a27.78,27.78,0,0,0-8.63-1.11c-10.65.46-21.28,1.18-31.91,1.9-5.76.39-11.52,1-17.75,1.52C633.54,139,636.82,157.45,640.27,176.83Z"/><path class="cls-1" d="M23.34,610.18V564.53c0-10.41,5-16.4,15.37-18a68.52,68.52,0,0,1,11.36-.7c17,.23,33.94.22,50.87,1.1,11,.57,21.53,4.15,31.17,9.68,18.91,10.85,28,27.7,28.73,49.1.8,24.13-7,44.28-28.54,57.41a70.49,70.49,0,0,1-33.62,10.51c-18.83.86-37.72,1-56.57.71-12.8-.19-18.75-7.07-18.77-19.85Q23.31,632.34,23.34,610.18ZM48,564.34a32.54,32.54,0,0,0-.34,3.34c0,28.22,0,56.44-.06,84.66,0,3,.87,4.08,4,4,11.69-.16,23.39.12,35.09-.14s22.72-2.62,32.22-9.73c12.25-9.17,16.54-22.12,16.84-36.87.51-25.24-13.41-42.21-38.51-44.63-15.8-1.52-31.81-.84-47.73-1.13A5.72,5.72,0,0,0,48,564.34Z"/><path class="cls-1" d="M714.51,616.22c17.71,16,23.87,38.34,36,58.39-9.32,0-17.56.12-25.79-.15-1.05,0-2.36-1.92-3-3.21-4.9-9.8-9.61-19.7-14.48-29.51-6.32-12.71-16-19.55-30.85-18.5a279.28,279.28,0,0,1-28.5.06c-4.2-.14-5.07,1.32-5,5.23.21,14,.07,28.08.06,42.11v3.74H619.1c-.08-1.56-.24-3.11-.24-4.65q0-50.24,0-100.46a54.27,54.27,0,0,1,.31-7.44c1.19-8.73,5.84-13.54,14.53-15.23a22.9,22.9,0,0,1,4.34-.6c21.19.07,42.39-.08,63.58.42A47,47,0,0,1,728,555.06c20.35,14.39,17.87,46.08-4.45,57.21C720.66,613.69,717.66,614.84,714.51,616.22ZM643.28,564v40.93c1.05.1,1.76.23,2.46.23,15.19,0,30.38.1,45.56-.07a40.5,40.5,0,0,0,10.35-1.59c9.91-2.77,15.85-10.73,15.49-20.23-.38-10-6.11-16.9-17.14-18.3-9.07-1.15-18.33-.82-27.51-.94C662.88,563.85,653.26,564,643.28,564Z"/><path class="cls-1" d="M447.89,674.65c-8.73,0-16.6.12-24.46-.12-1.15,0-2.71-1.49-3.3-2.67q-6.12-12.39-11.84-25c-1.05-2.29-2.34-3.26-5-3.25q-31.39.15-62.77,0c-2.61,0-3.93,1-4.95,3.25-3.56,8-7.4,15.92-10.89,24-1.21,2.78-2.68,4-5.86,3.9-7.29-.24-14.59-.07-22.67-.07,2.06-4.31,3.83-8.08,5.66-11.82q26.52-53.93,53-107.86c3.82-7.84,10.15-10.36,18.26-10.14,7.74.21,13.21,3.56,16.67,10.7q25.27,52.1,50.8,104.06C442.9,664.33,445.17,669.05,447.89,674.65ZM372.26,569.39c-9.09,19-17.8,37.17-26.8,56h53C389.65,606.54,381.14,588.35,372.26,569.39Z"/><path class="cls-1" d="M1056.67,674.65c-8.79,0-16.66.11-24.52-.12-1.16,0-2.72-1.5-3.31-2.7q-6.15-12.37-11.9-24.94c-1.14-2.49-2.62-3.26-5.35-3.24q-30.95.18-61.89,0c-3,0-4.37,1.06-5.53,3.71-3.57,8.18-7.37,16.25-11.25,24.28-.59,1.23-2.06,2.87-3.16,2.9-8,.25-16,.13-24.7.13.77-1.78,1.27-3.09,1.88-4.34Q935.28,612.63,963.62,555c3.5-7.15,9.22-10.15,17-10.1s13.85,2.47,17.5,10q24.7,50.89,49.68,101.68ZM981,569.38c-9,18.93-17.8,37.25-26.76,56h53Z"/><path class="cls-1" d="M557,21.5C541.15,33,532.11,48.65,522.64,63.86c-30.82,49.54-59.33,100.42-86.49,152.05-12.64,24.05-24.47,48.54-36.29,73-3.29,6.8-5.54,14.15-7.7,21.42-2.28,7.66-2.66,15.15,6.36,19.67l-.63.92c-3.79-.59-7.71-.78-11.36-1.86-6.91-2-11.2-7.17-10.49-14.33s1.87-14.73,5-21c12.13-24.49,25-48.6,37.9-72.7,2-3.76,1.74-5.51-1.75-8-13.61-9.89-27-20.06-38.17-32.81-5.57-6.37-10.3-13.14-10-22.2.22-7.33,3.47-12.81,9.62-16.69,7.54-4.75,16.15-5.88,24.66-7.14,22.27-3.28,44.57-6.29,66.82-9.7,2-.31,4.23-2.37,5.38-4.21,12.16-19.46,23.72-39.3,36.3-58.47,6.93-10.58,15.12-20.42,23.42-30C540.44,25.7,547.57,22.08,557,21.5Zm-132.32,190c14-25.67,27.38-50.19,40.95-75.08a45.24,45.24,0,0,0-5,0c-17.27,2.14-34.55,4.2-51.78,6.59a124.51,124.51,0,0,0-20.59,4.22c-9.94,3.18-12.64,10.18-8.33,19.66a30.46,30.46,0,0,0,4.54,7.46,185.72,185.72,0,0,0,15,16C407.37,197.58,415.87,204.22,424.64,211.51Z"/></svg>