<svg id="Layer_1" data-name="Layer 1" xmlns="http://www.w3.org/2000/svg" viewBox="0 0 1080 887"><defs><style>.cls-1{fill:#535353;}</style></defs><path class="cls-1" d="M201.48,798.23a3.18,3.18,0,1,1,6.36,0v22.2h32.5v-22.2a3.18,3.18,0,1,1,6.36,0v50.69a3.18,3.18,0,1,1-6.36,0V826.39h-32.5v22.53a3.18,3.18,0,1,1-6.36,0Z"/><path class="cls-1" d="M330.93,823.73v-.16c0-15.53,11.66-29.12,28.8-29.12s28.65,13.43,28.65,29v.16c0,15.53-11.67,29.13-28.81,29.13S330.93,839.26,330.93,823.73Zm50.85,0v-.16c0-12.79-9.34-23.25-22.21-23.25s-22.05,10.3-22.05,23.09v.16c0,12.79,9.34,23.25,22.21,23.25S381.78,836.53,381.78,823.73Z"/><path class="cls-1" d="M483.63,801.28H467.29a2.94,2.94,0,0,1-3-2.89,3,3,0,0,1,3-3H506.4a3,3,0,0,1,3,3,2.94,2.94,0,0,1-3,2.89H490.06v47.64a3.22,3.22,0,0,1-6.43,0Z"/><path class="cls-1" d="M591.67,848.51V798.63a3.22,3.22,0,0,1,3.14-3.22h35a2.9,2.9,0,1,1,0,5.79H598v19.23h28.16a2.94,2.94,0,0,1,2.9,2.9,2.89,2.89,0,0,1-2.9,2.9H598v19.71h32.18a2.9,2.9,0,1,1,0,5.79h-35.4A3.22,3.22,0,0,1,591.67,848.51Z"/><path class="cls-1" d="M716.37,798.23a3.18,3.18,0,1,1,6.36,0v47.63h29.21a3,3,0,0,1,2.89,3,2.87,2.87,0,0,1-2.89,2.89H719.51a3.22,3.22,0,0,1-3.14-3.22Z"/><path class="cls-1" d="M835,845a2.83,2.83,0,0,1-1.21-2.41,3.08,3.08,0,0,1,3.06-3.14,2.78,2.78,0,0,1,1.93.73,25.63,25.63,0,0,0,17.78,6.67c7.56,0,12.55-4,12.55-9.57v-.16c0-5.23-2.81-8.21-14.64-10.7-12.95-2.82-18.91-7-18.91-16.26V810c0-8.85,7.81-15.36,18.51-15.36,7.4,0,12.79,1.85,17.94,5.55a3.28,3.28,0,0,1,1.37,2.57,3.06,3.06,0,0,1-3.06,3.06,3,3,0,0,1-1.85-.56,23.55,23.55,0,0,0-14.56-4.91c-7.33,0-12,4-12,9.09v.16c0,5.31,2.9,8.29,15.29,10.94,12.55,2.74,18.34,7.33,18.34,15.94v.16c0,9.65-8,15.93-19.23,15.93A32.88,32.88,0,0,1,835,845Z"/><path class="cls-1" d="M626.39,108.78c11.78-1.14,23.1-2.62,34.47-3.22,9.3-.49,18.79-.9,28,.37,14.58,2,19.27,12.69,12.33,25.77-5.25,9.89-13.1,17.56-21.64,24.51-11.68,9.51-23.53,18.81-35.43,28-2.49,2-3.22,3.85-2.74,7.05,4,26.6,8,53.19,11.4,79.87a90.72,90.72,0,0,1-.61,24c-1.88,13-9.2,19.47-22.28,20.77-10.91,1.08-21.56-.9-32.11-3.54-25.87-6.46-49.9-17.53-73.4-29.8-4.61-2.41-7.68-2.49-12,.8-13.44,10.33-27.05,20.5-41.1,30-11.67,7.86-24.22,14.27-38.66,15.56a31.82,31.82,0,0,1-5.69.05c-9.73-.9-14.76-6.26-13.05-15.8a105.68,105.68,0,0,1,7.5-25.54c11.44-24.82,23.06-49.59,35.78-73.77Q488.38,154.49,521.24,96c10.52-18.68,22.64-36.5,34.76-54.21,3.94-5.76,9.74-10.56,15.48-14.7,8.64-6.23,16.89-4.94,24.52,2.46s12.8,16.87,16,26.92c4.92,15.58,8.87,31.47,13.22,47.23C625.62,105.2,625.92,106.76,626.39,108.78Zm-14.51,12.39c-32.38,3.38-63.66,6.61-94.91,10-1.42.16-3.15,1.93-3.88,3.38C496.32,167.73,479.72,201,463,234.09c-1.61,3.19-1.13,4.93,1.9,6.64q23.86,13.49,47.58,27.22c2.51,1.46,4.1,1,6.21-.62,10-7.63,20.2-15,30.18-22.65q36-27.62,71.9-55.48c1.45-1.13,3-3.6,2.78-5.19-2.91-20-6.11-39.87-9.37-59.77C613.93,123,612.51,122,611.88,121.17Zm13.58,76-99.75,76.72a15.76,15.76,0,0,0,1.9,1.5c18,9.08,36.13,18.11,55.7,23.25,11.07,2.91,22.59,4.45,34,5.58,7.64.75,13.17-3.48,14.86-10.94,1.57-6.89,2.64-14.19,2.12-21.18-1.33-18-3.58-36-5.64-54C627.89,211.31,626.62,204.63,625.46,197.15Zm-104.7-77.22,91-9.9a19.36,19.36,0,0,0-.17-3.21c-3.46-14.47-6.57-29-10.61-43.36a74.66,74.66,0,0,0-8.41-18.19c-5.76-9.44-13.41-10.64-21.4-3.07a93.94,93.94,0,0,0-14.67,17.87c-10.6,16.79-20.56,34-30.75,51C524.17,113.79,522.67,116.56,520.76,119.93ZM458.57,244.49a9.58,9.58,0,0,0-1.27,1.73c-7.18,16.46-14.46,32.88-21.41,49.44a34.18,34.18,0,0,0-2.15,10.7c-.45,6.51,2.94,9.62,9.15,7.89,5.71-1.59,11.61-3.5,16.58-6.62,15.82-9.95,31.25-20.52,46.84-30.85.81-.53,1.68-1,2.81-1.62Zm180.19-67.66c3-2.37,5.47-4.14,7.77-6.05,12.45-10.35,25-20.56,37.21-31.21,3.32-2.9,5.88-6.9,8-10.8,3-5.3,1-9.43-4.84-11.09a27.81,27.81,0,0,0-8.64-1.11c-10.64.46-21.27,1.18-31.9,1.9-5.77.39-11.52,1-17.76,1.52C632,139,635.32,157.45,638.76,176.83Z"/><path class="cls-1" d="M21.84,610.18V564.53c0-10.41,5-16.4,15.37-18a68.39,68.39,0,0,1,11.36-.7c16.95.23,33.93.22,50.86,1.1,11,.57,21.53,4.15,31.17,9.68,18.91,10.85,28,27.7,28.74,49.1.8,24.13-7,44.28-28.54,57.41a70.56,70.56,0,0,1-33.62,10.51c-18.83.86-37.72,1-56.58.71-12.79-.19-18.75-7.07-18.76-19.85Q21.81,632.34,21.84,610.18Zm24.61-45.84a30,30,0,0,0-.35,3.34q0,42.33-.05,84.66c0,3,.86,4.08,4,4,11.7-.16,23.4.12,35.09-.14s22.73-2.62,32.22-9.73c12.25-9.17,16.55-22.12,16.85-36.87.51-25.24-13.42-42.21-38.52-44.63-15.8-1.52-31.81-.84-47.72-1.13A5.72,5.72,0,0,0,46.45,564.34Z"/><path class="cls-1" d="M713,616.22c17.72,16,23.87,38.34,36,58.39-9.32,0-17.56.12-25.78-.15-1.05,0-2.36-1.92-3-3.21-4.9-9.8-9.61-19.7-14.49-29.51-6.31-12.71-16-19.55-30.84-18.5a279.29,279.29,0,0,1-28.5.06c-4.21-.14-5.08,1.32-5,5.23.22,14,.07,28.08.06,42.11v3.74H617.6c-.09-1.56-.24-3.11-.24-4.65q0-50.24,0-100.46a55.91,55.91,0,0,1,.3-7.44c1.2-8.73,5.85-13.54,14.53-15.23a23.12,23.12,0,0,1,4.34-.6c21.2.07,42.4-.08,63.58.42a47,47,0,0,1,26.33,8.64c20.34,14.39,17.86,46.08-4.45,57.21C719.15,613.69,716.15,614.84,713,616.22ZM641.78,564v40.93c1.05.1,1.75.23,2.46.23,15.18,0,30.37.1,45.55-.07a40.43,40.43,0,0,0,10.35-1.59c9.91-2.77,15.86-10.73,15.5-20.23-.39-10-6.12-16.9-17.15-18.3-9.06-1.15-18.33-.82-27.5-.94C661.37,563.85,651.76,564,641.78,564Z"/><path class="cls-1" d="M446.38,674.65c-8.72,0-16.59.12-24.46-.12-1.15,0-2.71-1.49-3.29-2.67q-6.12-12.39-11.85-25c-1-2.29-2.33-3.26-4.95-3.25q-31.38.15-62.77,0c-2.6,0-3.93,1-4.95,3.25-3.55,8-7.39,15.92-10.88,24-1.21,2.78-2.69,4-5.87,3.9-7.28-.24-14.58-.07-22.66-.07,2.06-4.31,3.82-8.08,5.66-11.82q26.5-53.93,53-107.86c3.83-7.84,10.15-10.36,18.27-10.14,7.74.21,13.2,3.56,16.66,10.7q25.27,52.1,50.81,104.06C441.4,664.33,443.67,669.05,446.38,674.65ZM370.75,569.39c-9.08,19-17.8,37.17-26.8,56h53Z"/><path class="cls-1" d="M1055.16,674.65c-8.78,0-16.66.11-24.52-.12-1.15,0-2.71-1.5-3.3-2.7q-6.15-12.37-11.9-24.94c-1.14-2.49-2.62-3.26-5.35-3.24q-30.95.18-61.89,0c-3,0-4.38,1.06-5.54,3.71-3.56,8.18-7.36,16.25-11.24,24.28-.6,1.23-2.06,2.87-3.17,2.9-8,.25-16,.13-24.69.13.76-1.78,1.26-3.09,1.88-4.34Q933.78,612.63,962.11,555c3.51-7.15,9.22-10.15,17-10.1s13.85,2.47,17.49,10q24.72,50.89,49.69,101.68C1049.07,662.26,1051.9,668,1055.16,674.65ZM979.48,569.38c-9.05,18.93-17.81,37.25-26.76,56h53Z"/><path class="cls-1" d="M555.45,21.5C539.65,33,530.6,48.65,521.14,63.86c-30.83,49.54-59.34,100.42-86.49,152.05-12.65,24.05-24.47,48.54-36.3,73-3.28,6.8-5.53,14.15-7.69,21.42C388.38,318,388,325.48,397,330l-.62.92c-3.8-.59-7.71-.78-11.37-1.86-6.91-2-11.19-7.17-10.49-14.33s1.88-14.73,5-21c12.13-24.49,25-48.6,37.89-72.7,2-3.76,1.75-5.51-1.74-8-13.61-9.89-27-20.06-38.18-32.81-5.56-6.37-10.3-13.14-10-22.2.22-7.33,3.46-12.81,9.62-16.69,7.54-4.75,16.14-5.88,24.66-7.14,22.26-3.28,44.57-6.29,66.82-9.7,2-.31,4.22-2.37,5.38-4.21,12.16-19.46,23.72-39.3,36.29-58.47,6.94-10.58,15.12-20.42,23.43-30C538.93,25.7,546.07,22.08,555.45,21.5Zm-132.31,190c14-25.67,27.38-50.19,40.95-75.08a45.43,45.43,0,0,0-5,0c-17.26,2.14-34.54,4.2-51.78,6.59a124.39,124.39,0,0,0-20.58,4.22c-9.94,3.18-12.65,10.18-8.33,19.66a30.46,30.46,0,0,0,4.54,7.46,185.61,185.61,0,0,0,15,16C405.86,197.58,414.36,204.22,423.14,211.51Z"/></svg>